<svg xmlns="http://www.w3.org/2000/svg" xmlns:xlink="http://www.w3.org/1999/xlink" id="Layer_1" width="21" height="21" x="0" y="0" enable-background="new 2 2 21 21" version="1.1" viewBox="2 2 21 21" xml:space="preserve"><path fill="#FFF" d="M2,21.688C2,22.415,2.586,23,3.312,23c0.42,0,0.677-0.152,0.919-0.394l4.076-4.074	c1.536,1.15,3.437,1.844,5.505,1.844c5.075,0,9.188-4.112,9.188-9.188C23.001,6.112,18.888,2,13.812,2	c-5.074,0-9.187,4.113-9.187,9.188c0,2.069,0.693,3.969,1.843,5.507L2.395,20.77C2.072,21.092,2.001,21.402,2,21.688z M13.812,17.751c-3.624,0-6.562-2.938-6.562-6.563s2.938-6.563,6.562-6.563c3.625,0,6.563,2.938,6.563,6.563	C20.376,14.812,17.438,17.751,13.812,17.751z"/></svg>